<?xml version="1.0" encoding="utf-8"?>
<!-- Designed by Vexels.com - 2016 All Rights Reserved - https://vexels.com/terms-and-conditions/  -->

<svg version="1.1" id="Capa_1" xmlns="http://www.w3.org/2000/svg" xmlns:xlink="http://www.w3.org/1999/xlink" x="0px" y="0px"
	 width="1200px" height="1200px" viewBox="0 0 1200 1200" enable-background="new 0 0 1200 1200" xml:space="preserve">
<g id="VEXELS">
</g>
<g>
	<g id="BACKGROUND">
		<g>
			<g>
				<circle fill="#C02127" cx="599.999" cy="600" r="549.998"/>
				<g>
					<path fill="#FFFFFF" d="M613.289,550.778c-0.242,6.634-2.223,13.584-4.973,19.691c-7.742,17.262-27.607,22.438-42.215,10.374
						c-7.257-5.996-13.669-13.918-18.191-22.209c-42.396-77.774-84.359-155.798-126.336-233.804
						c-8.125-15.088-4.434-29.063,13.087-36.499c20.943-8.908,42.906-16.675,65.197-20.842c29.077-5.437,58.837-8.079,88.427-9.553
						c19.35-0.967,28.781,10.302,28.424,29.442C615.685,342.542,614.476,518.175,613.289,550.778z"/>
					<path fill="#FFFFFF" d="M749.39,906.666c-12.375-0.595-18.588-8.393-23.502-17.573c-18.588-34.73-37.002-69.558-55.465-104.356
						c-5.271-9.943-10.645-19.849-15.631-29.938c-6.256-12.64-4.193-25.449,5.271-35.668c9.641-10.407,21.971-13.688,34.959-8.364
						c47.559,19.496,95.098,39.056,142.479,58.996c18.627,7.837,24.182,20.888,14.732,38.774
						c-20.27,38.403-49.357,69.211-86.049,92.514C761.353,904.124,755.496,906.8,749.39,906.666z"/>
					<path fill="#FFFFFF" d="M348.537,583.571c6.907-24.333,22.035-29.701,44.762-18.714
						c44.906,21.722,89.627,43.819,134.345,65.949c13.87,6.87,19.724,18.602,17.694,33.735c-1.842,13.707-9.93,22.148-24.988,25.686
						c-47.357,11.108-94.697,22.352-142.131,33.131c-28.807,6.547-38.727-0.285-42.99-29.218c-1.336-9.107-2.37-17.49-1.609-27.671
						C333.643,659.583,340.903,610.464,348.537,583.571z"/>
					<path fill="#FFFFFF" d="M866.642,598.523c-0.527,17.149-6.914,25.437-21.816,27.973c-51.457,8.774-102.965,17.313-154.51,25.58
						c-14.477,2.328-26.439-4.243-33.262-16.732c-6.813-12.49-5.861-24.048,4.166-35.622
						c33.193-38.312,66.459-76.562,100.123-114.452c12.77-14.382,28.729-15.223,42.143-1.629
						c29.918,30.337,49.936,66.746,62.33,107.396C866.734,594.043,866.521,597.399,866.642,598.523z"/>
					<path fill="#FFFFFF" d="M548.736,942.073c-27.732-4.122-56.408-16.636-84.012-31.701c-10.871-5.934-21.453-12.911-30.82-20.97
						c-13.953-12.012-14.56-26.875-1.77-39.949c36.285-37.108,72.957-73.858,109.705-110.521
						c9.414-9.398,24.209-10.587,37.103-4.117c12.048,6.05,17.983,17.221,16.831,30.634c-4.174,48.501-8.286,97.002-12.266,145.522
						C581.614,933.989,572.931,942.937,548.736,942.073z"/>
				</g>
			</g>
			<polyline fill="none" points="611.279,266.852 607.22,262.75 599.989,255.562 			"/>
			<g>
				<path fill="#FFFFFF" d="M616.718,287.37c-1.053,55.167-2.227,230.791-3.445,263.413c-0.201,6.619-2.188,13.564-4.951,19.701
					c-2.035,4.547-4.92,8.248-8.333,11.009c-9.509,7.758-23.114,8.248-33.888-0.649c-7.271-6.011-13.688-13.938-18.196-22.224
					c-42.413-77.755-84.338-155.795-126.341-233.794c-8.129-15.073-4.434-29.049,13.082-36.48
					c20.958-8.94,42.938-16.698,65.202-20.885c29.087-5.402,58.868-8.04,88.44-9.543c4.434-0.203,8.33,0.203,11.7,1.257
					c2.767,0.771,5.163,1.988,7.231,3.575c1.545,1.141,2.928,2.52,4.059,4.103C615.056,271.855,616.882,278.839,616.718,287.37z"/>
				<path opacity="0.1" enable-background="new    " d="M852.224,808.546c-20.27,38.394-49.367,69.187-86.049,92.504
					c-4.832,3.093-10.68,5.77-16.777,5.605c-12.393-0.614-18.605-8.364-23.525-17.549c-18.559-34.735-37.006-69.554-55.449-104.361
					c-5.281-9.953-10.645-19.868-15.641-29.947c-6.256-12.63-4.184-25.468,5.281-35.668c9.621-10.398,21.971-13.688,34.939-8.364
					c47.568,19.496,95.107,39.046,142.518,58.986C856.128,777.589,861.693,790.63,852.224,808.546z"/>
				<path fill="#FFFFFF" d="M348.537,583.571c6.907-24.333,22.035-29.701,44.762-18.714c44.906,21.722,89.627,43.819,134.345,65.949
					c13.87,6.87,19.724,18.602,17.694,33.735c-1.842,13.707-9.93,22.148-24.988,25.686c-47.357,11.108-94.697,22.352-142.131,33.131
					c-28.807,6.547-38.727-0.285-42.99-29.218c-1.336-9.107-2.37-17.49-1.609-27.671
					C333.643,659.583,340.903,610.464,348.537,583.571z"/>
				<path opacity="0.1" enable-background="new    " d="M866.646,598.518c-0.521,17.146-6.947,25.432-21.814,27.987
					c-51.473,8.774-102.98,17.308-154.5,25.556c-14.502,2.362-26.445-4.229-33.268-16.732c-6.832-12.476-5.891-24.053,4.137-35.588
					c33.193-38.312,66.471-76.581,100.143-114.481c12.756-14.377,28.719-15.193,42.133-1.629
					c29.941,30.351,49.926,66.751,62.314,107.41C866.734,594.048,866.531,597.38,866.646,598.518z"/>
				<path fill="#FFFFFF" d="M595.763,765.443c-4.191,48.506-8.291,97.007-12.27,145.518c-1.87,23.038-10.563,31.972-34.771,31.121
					c-27.709-4.141-56.385-16.659-84.013-31.729c-10.847-5.934-21.448-12.882-30.796-20.96c-0.202-0.203-0.443-0.367-0.646-0.57
					l-0.047-0.039l-3.046-3c-0.079-0.082-0.159-0.165-0.244-0.285c-9.953-11.215-9.263-24.333,2.194-36.035
					c36.276-37.128,72.961-73.858,109.689-110.541c9.425-9.384,24.215-10.563,37.128-4.107c7.233,3.663,12.271,9.146,14.872,15.887
					C595.556,755.123,596.208,760.123,595.763,765.443z"/>
			</g>
			<path opacity="0.2" enable-background="new    " d="M611.279,266.852c3.777,4.998,5.604,11.982,5.439,20.513
				c-1.053,55.167-2.227,230.791-3.445,263.413c-0.201,6.619-2.188,13.565-4.951,19.701c-2.035,4.547-4.92,8.248-8.333,11.009
				v159.086l-6.175,10.107c1.746,4.432,2.395,9.432,1.955,14.747c-4.192,48.511-8.292,97.012-12.271,145.518
				c-1.869,23.033-10.562,31.972-34.771,31.122c-27.707-4.142-56.384-16.66-84.012-31.73c-10.848-5.934-21.448-12.877-30.795-20.955
				c-0.203-0.213-0.445-0.367-0.648-0.57l166.723,166.725l87.51,87.503c203.041-32.46,369.035-176.03,433.545-366.44v-0.039
				L611.279,266.852z M852.224,808.546c-20.27,38.394-49.367,69.187-86.049,92.504c-4.832,3.093-10.68,5.77-16.777,5.605
				c-12.393-0.614-18.605-8.364-23.525-17.549c-18.559-34.735-37.006-69.554-55.449-104.361
				c-5.281-9.953-10.645-19.868-15.641-29.947c-6.256-12.63-4.184-25.468,5.281-35.668c9.621-10.398,21.971-13.688,34.939-8.364
				c47.568,19.496,95.107,39.046,142.518,58.986C856.128,777.589,861.693,790.63,852.224,808.546z M844.832,626.505
				c-51.473,8.774-102.98,17.308-154.5,25.556c-14.502,2.362-26.445-4.229-33.268-16.732c-6.832-12.476-5.891-24.053,4.137-35.588
				c33.193-38.312,66.471-76.581,100.143-114.481c12.756-14.377,28.719-15.193,42.133-1.629
				c29.941,30.351,49.926,66.751,62.314,107.41c0.934,3.008,0.73,6.34,0.855,7.478C866.125,615.654,859.699,623.945,844.832,626.505
				z"/>
			<line fill="none" x1="593.814" y1="750.691" x2="592.468" y2="752.895"/>
		</g>
	</g>
</g>
</svg>
